<?xml version="1.0" encoding="UTF-8" standalone="no"?><!DOCTYPE svg PUBLIC "-//W3C//DTD SVG 1.1//EN" "http://www.w3.org/Graphics/SVG/1.1/DTD/svg11.dtd"><svg width="100%" height="100%" viewBox="0 0 156 106" version="1.1" xmlns="http://www.w3.org/2000/svg" xmlns:xlink="http://www.w3.org/1999/xlink" xml:space="preserve" xmlns:serif="http://www.serif.com/" style="fill-rule:evenodd;clip-rule:evenodd;stroke-linejoin:round;stroke-miterlimit:2;"><g id="logo"><path d="M0.5,0.5l0,25l78,80l0,-25l-78,-80Z" style="fill:#fff;"/><path d="M0.5,53l0,52.5l19,0l0,-33l-19,-19.5Z" style="fill:#fff;"/><path d="M60.5,36l0,-34.5l65,0c0,0 5.546,0.008 11.5,3c8.524,4.284 18.408,13.929 18.5,32c0.155,30.692 -27.57,32.885 -37.353,32.5l34.353,36.5l-24.5,0l-67.5,-69.5Zm18,-20.5l0,39c0,0 41.296,0.116 44,0c1.529,-0.066 6.656,-0.619 10.5,-4c1.722,-1.514 3.553,-3.506 5,-6.5c1.032,-2.136 1.496,-5.027 1.5,-7.5c0.004,-3.197 -0.21,-6.792 -1.445,-10c-1.321,-3.43 -3.724,-6.417 -5.555,-8c-3.707,-3.204 -9,-3 -9,-3l-45,0Z" style="fill:#fff;"/></g></svg>